<svg version="1.1" viewBox="0.0 0.0 960.0 720.0" fill="none" stroke="none" stroke-linecap="square" stroke-miterlimit="10" xmlns:xlink="http://www.w3.org/1999/xlink" xmlns="http://www.w3.org/2000/svg"><clipPath id="p.0"><path d="m0 0l960.0 0l0 720.0l-960.0 0l0 -720.0z" clip-rule="nonzero"/></clipPath><g clip-path="url(#p.0)"><path fill="#000000" fill-opacity="0.0" d="m0 0l960.0 0l0 720.0l-960.0 0z" fill-rule="evenodd"/><path fill="#000000" fill-opacity="0.0" d="m-463.5315 442.74222l0 -207.68503" fill-rule="evenodd"/><path stroke="#38761d" stroke-width="16.0" stroke-linejoin="round" stroke-linecap="butt" d="m-463.5315 442.74222l0 -207.68503" fill-rule="evenodd"/><path fill="#000000" fill-opacity="0.0" d="m-16.993439 189.18504l-400.31497 0" fill-rule="evenodd"/><path stroke="#38761d" stroke-width="16.0" stroke-linejoin="round" stroke-linecap="butt" d="m-16.993439 189.18504l-400.31497 0" fill-rule="evenodd"/><path fill="#000000" fill-opacity="0.0" d="m-463.5315 235.48425l0 0c0 -12.279312 4.8779297 -24.055695 13.56073 -32.738495c8.68277 -8.682785 20.459167 -13.560715 32.738495 -13.560715l0 46.29921z" fill-rule="evenodd"/><path fill="#000000" fill-opacity="0.0" d="m-463.5315 235.48425l0 0c0 -12.279312 4.8779297 -24.055695 13.56073 -32.738495c8.68277 -8.682785 20.459167 -13.560715 32.738495 -13.560715" fill-rule="evenodd"/><path stroke="#38761d" stroke-width="16.0" stroke-linejoin="round" stroke-linecap="butt" d="m-463.5315 235.48425l0 0c0 -12.279312 4.8779297 -24.055695 13.56073 -32.738495c8.68277 -8.682785 20.459167 -13.560715 32.738495 -13.560715" fill-rule="evenodd"/><path fill="#000000" fill-opacity="0.0" d="m-463.5315 237.21654l0 0c0 -26.52707 21.504425 -48.031494 48.031494 -48.031494l0 0c12.738739 0 24.95575 5.06044 33.96341 14.0681c9.007629 9.007645 14.068085 21.22464 14.068085 33.963394l0 0c0 26.527054 -21.504425 48.03148 -48.031494 48.03148l0 0c-26.52707 0 -48.031494 -21.504425 -48.031494 -48.03148z" fill-rule="evenodd"/><path stroke="#000000" stroke-width="1.0" stroke-linejoin="round" stroke-linecap="butt" stroke-dasharray="8.0,3.0,1.0,3.0" d="m-463.5315 237.21654l0 0c0 -26.52707 21.504425 -48.031494 48.031494 -48.031494l0 0c12.738739 0 24.95575 5.06044 33.96341 14.0681c9.007629 9.007645 14.068085 21.22464 14.068085 33.963394l0 0c0 26.527054 -21.504425 48.03148 -48.031494 48.03148l0 0c-26.52707 0 -48.031494 -21.504425 -48.031494 -48.03148z" fill-rule="evenodd"/><path fill="#000000" fill-opacity="0.0" d="m-477.76923 285.24802l-43.055115 0" fill-rule="evenodd"/><path stroke="#000000" stroke-width="1.0" stroke-linejoin="round" stroke-linecap="butt" stroke-dasharray="8.0,3.0" d="m-477.76923 285.24802l-43.055115 0" fill-rule="evenodd"/><path fill="#000000" fill-opacity="0.0" d="m-477.76923 442.74146l-41.322815 0" fill-rule="evenodd"/><path stroke="#000000" stroke-width="1.0" stroke-linejoin="round" stroke-linecap="butt" stroke-dasharray="8.0,3.0" d="m-477.76923 442.74146l-41.322815 0" fill-rule="evenodd"/><path fill="#000000" fill-opacity="0.0" d="m-470.24277 448.7966l0 46.11023" fill-rule="evenodd"/><path stroke="#000000" stroke-width="1.0" stroke-linejoin="round" stroke-linecap="butt" stroke-dasharray="8.0,3.0" d="m-470.24277 448.7966l0 46.11023" fill-rule="evenodd"/><path fill="#000000" fill-opacity="0.0" d="m-16.993439 204.98819l0 289.92126" fill-rule="evenodd"/><path stroke="#000000" stroke-width="1.0" stroke-linejoin="round" stroke-linecap="butt" stroke-dasharray="8.0,3.0" d="m-16.993439 204.98819l0 289.92126" fill-rule="evenodd"/><path fill="#000000" fill-opacity="0.0" d="m-469.7651 480.20078l452.59845 0" fill-rule="evenodd"/><path stroke="#000000" stroke-width="1.0" stroke-linejoin="round" stroke-linecap="butt" d="m-463.7651 480.20078l440.59845 0" fill-rule="evenodd"/><path fill="#000000" stroke="#000000" stroke-width="1.0" stroke-linecap="butt" d="m-463.7651 478.54904l-4.538086 1.6517334l4.538086 1.6517334z" fill-rule="evenodd"/><path fill="#000000" stroke="#000000" stroke-width="1.0" stroke-linecap="butt" d="m-23.166666 481.8525l4.5380974 -1.6517334l-4.5380974 -1.6517334z" fill-rule="evenodd"/><path fill="#000000" fill-opacity="0.0" d="m-263.94882 438.18503l40.661423 0l0 42.015747l-40.661423 0z" fill-rule="evenodd"/><path fill="#000000" d="m-251.42006 465.10504l0 -13.359375l1.640625 0l0 13.359375l-1.640625 0z" fill-rule="nonzero"/><path fill="#000000" d="m-243.46274 472.10504l0 -0.8125q-0.609375 0.953125 -1.796875 0.953125q-0.78125 0 -1.421875 -0.421875q-0.640625 -0.421875 -1.0 -1.1875q-0.359375 -0.765625 -0.359375 -1.75q0 -0.96875 0.3125 -1.75q0.328125 -0.78125 0.96875 -1.203125q0.65625 -0.421875 1.453125 -0.421875q0.578125 0 1.03125 0.25q0.453125 0.234375 0.75 0.640625l0 -3.203125l1.078125 0l0 8.90625l-1.015625 0zm-3.453125 -3.21875q0 1.234375 0.515625 1.859375q0.53125 0.609375 1.234375 0.609375q0.71875 0 1.21875 -0.578125q0.5 -0.59375 0.5 -1.796875q0 -1.328125 -0.515625 -1.9375q-0.5 -0.625 -1.25 -0.625q-0.71875 0 -1.21875 0.59375q-0.484375 0.59375 -0.484375 1.875zm6.182663 3.21875l0 -8.90625l1.09375 0l0 3.203125q0.765625 -0.890625 1.9375 -0.890625q0.71875 0 1.25 0.28125q0.53125 0.28125 0.75 0.78125q0.234375 0.5 0.234375 1.4375l0 4.09375l-1.09375 0l0 -4.09375q0 -0.8125 -0.359375 -1.1875q-0.359375 -0.375 -1.0 -0.375q-0.484375 0 -0.921875 0.25q-0.421875 0.25 -0.609375 0.6875q-0.1875 0.4375 -0.1875 1.1875l0 3.53125l-1.09375 0z" fill-rule="nonzero"/><path fill="#000000" fill-opacity="0.0" d="m-505.49475 285.2467l0 157.7323" fill-rule="evenodd"/><path stroke="#000000" stroke-width="1.0" stroke-linejoin="round" stroke-linecap="butt" d="m-505.49475 291.2467l0 145.7323" fill-rule="evenodd"/><path fill="#000000" stroke="#000000" stroke-width="1.0" stroke-linecap="butt" d="m-503.84302 291.2467l-1.6517334 -4.538086l-1.6517334 4.538086z" fill-rule="evenodd"/><path fill="#000000" stroke="#000000" stroke-width="1.0" stroke-linecap="butt" d="m-507.14648 436.979l1.6517334 4.538086l1.6517334 -4.538086z" fill-rule="evenodd"/><path fill="#000000" fill-opacity="0.0" d="m-546.1562 342.98688l40.661438 0l0 42.015747l-40.661438 0z" fill-rule="evenodd"/><path fill="#000000" d="m-535.0059 369.90686l0 -13.359375l1.640625 0l0 13.359375l-1.640625 0z" fill-rule="nonzero"/><path fill="#000000" d="m-526.8143 374.82874l1.125 0.140625q-0.265625 0.984375 -0.984375 1.53125q-0.71875 0.546875 -1.84375 0.546875q-1.421875 0 -2.25 -0.859375q-0.828125 -0.875 -0.828125 -2.453125q0 -1.625 0.828125 -2.515625q0.84375 -0.90625 2.1875 -0.90625q1.296875 0 2.109375 0.890625q0.828125 0.875 0.828125 2.46875q0 0.09375 -0.015625 0.28125l-4.8125 0q0.0625 1.078125 0.609375 1.640625q0.546875 0.5625 1.34375 0.5625q0.609375 0 1.03125 -0.3125q0.421875 -0.328125 0.671875 -1.015625zm-3.59375 -1.765625l3.609375 0q-0.078125 -0.8125 -0.421875 -1.21875q-0.515625 -0.640625 -1.34375 -0.640625q-0.75 0 -1.265625 0.515625q-0.515625 0.5 -0.578125 1.34375zm5.370178 3.84375l2.359375 -3.359375l-2.1875 -3.09375l1.375 0l0.984375 1.515625q0.28125 0.4375 0.453125 0.71875q0.265625 -0.390625 0.484375 -0.703125l1.09375 -1.53125l1.296875 0l-2.21875 3.046875l2.390625 3.40625l-1.34375 0l-1.3125 -2.0l-0.359375 -0.546875l-1.6875 2.546875l-1.328125 0zm9.328003 -0.984375l0.15625 0.96875q-0.453125 0.09375 -0.828125 0.09375q-0.59375 0 -0.921875 -0.1875q-0.328125 -0.1875 -0.46875 -0.484375q-0.125 -0.3125 -0.125 -1.296875l0 -3.703125l-0.796875 0l0 -0.859375l0.796875 0l0 -1.59375l1.09375 -0.65625l0 2.25l1.09375 0l0 0.859375l-1.09375 0l0 3.765625q0 0.46875 0.046875 0.609375q0.0625 0.125 0.1875 0.203125q0.140625 0.078125 0.390625 0.078125q0.171875 0 0.46875 -0.046875z" fill-rule="nonzero"/><path fill="#000000" fill-opacity="0.0" d="m-449.4634 203.25314l67.93701 67.93701" fill-rule="evenodd"/><path stroke="#000000" stroke-width="1.0" stroke-linejoin="round" stroke-linecap="butt" d="m-445.22073 207.49577l59.45169 59.451736" fill-rule="evenodd"/><path fill="#000000" stroke="#000000" stroke-width="1.0" stroke-linecap="butt" d="m-444.0528 206.32782l-4.3768616 -2.0409546l2.0409546 4.3768616z" fill-rule="evenodd"/><path fill="#000000" stroke="#000000" stroke-width="1.0" stroke-linecap="butt" d="m-386.93695 268.11545l4.3768616 2.040985l-2.040985 -4.376892z" fill-rule="evenodd"/><path fill="#000000" fill-opacity="0.0" d="m-425.2338 208.1923l40.661407 0l0 42.015747l-40.661407 0z" fill-rule="evenodd"/><path fill="#000000" d="m-410.20206 235.1123l0 -13.359375l4.609375 0q1.546875 0 2.375 0.203125q1.140625 0.25 1.953125 0.953125q1.0625 0.890625 1.578125 2.28125q0.53125 1.390625 0.53125 3.171875q0 1.515625 -0.359375 2.703125q-0.359375 1.171875 -0.921875 1.9375q-0.546875 0.765625 -1.203125 1.21875q-0.65625 0.4375 -1.59375 0.671875q-0.9375 0.21875 -2.140625 0.21875l-4.828125 0zm1.765625 -1.578125l2.859375 0q1.3125 0 2.0625 -0.234375q0.75 -0.25 1.203125 -0.703125q0.625 -0.625 0.96875 -1.6875q0.359375 -1.0625 0.359375 -2.578125q0 -2.09375 -0.6875 -3.21875q-0.6875 -1.125 -1.671875 -1.5q-0.703125 -0.28125 -2.28125 -0.28125l-2.8125 0l0 10.203125z" fill-rule="nonzero"/><path fill="#000000" fill-opacity="0.0" d="m66.30905 111.32112l111.71654 0" fill-rule="evenodd"/><path stroke="#38761d" stroke-width="16.0" stroke-linejoin="round" stroke-linecap="butt" d="m66.30905 111.32112l111.71654 0" fill-rule="evenodd"/><path fill="#000000" fill-opacity="0.0" d="m466.62402 15.261155l-400.31497 0" fill-rule="evenodd"/><path stroke="#38761d" stroke-width="16.0" stroke-linejoin="round" stroke-linecap="butt" d="m466.62402 15.261155l-400.31497 0" fill-rule="evenodd"/><path fill="#000000" fill-opacity="0.0" d="m20.08727 63.147026l0 0c0 -12.701153 4.877939 -24.882103 13.560724 -33.863174c8.682789 -8.981073 20.459175 -14.026587 32.738487 -14.026587l0 47.889763z" fill-rule="evenodd"/><path fill="#000000" fill-opacity="0.0" d="m20.08727 63.147026l0 0c0 -12.701153 4.877939 -24.882103 13.560724 -33.863174c8.682789 -8.981073 20.459175 -14.026587 32.738487 -14.026587" fill-rule="evenodd"/><path stroke="#38761d" stroke-width="16.0" stroke-linejoin="round" stroke-linecap="butt" d="m20.08727 63.147026l0 0c0 -12.701153 4.877939 -24.882103 13.560724 -33.863174c8.682789 -8.981073 20.459175 -14.026587 32.738487 -14.026587" fill-rule="evenodd"/><path fill="#000000" fill-opacity="0.0" d="m178.0269 169.06299l0 -40.7874" fill-rule="evenodd"/><path stroke="#000000" stroke-width="1.0" stroke-linejoin="round" stroke-linecap="butt" stroke-dasharray="8.0,3.0" d="m178.0269 169.06299l0 -40.7874" fill-rule="evenodd"/><path fill="#000000" fill-opacity="0.0" d="m13.375984 88.95276l0 168.0" fill-rule="evenodd"/><path stroke="#000000" stroke-width="1.0" stroke-linejoin="round" stroke-linecap="butt" stroke-dasharray="8.0,3.0" d="m13.375984 88.95276l0 168.0" fill-rule="evenodd"/><path fill="#000000" fill-opacity="0.0" d="m466.62402 31.064304l0 226.64566" fill-rule="evenodd"/><path stroke="#000000" stroke-width="1.0" stroke-linejoin="round" stroke-linecap="butt" stroke-dasharray="8.0,3.0" d="m466.62402 31.064304l0 226.64566" fill-rule="evenodd"/><path fill="#000000" fill-opacity="0.0" d="m13.852363 242.23753l452.59842 0" fill-rule="evenodd"/><path stroke="#000000" stroke-width="1.0" stroke-linejoin="round" stroke-linecap="butt" d="m19.852362 242.23753l440.59842 0" fill-rule="evenodd"/><path fill="#000000" stroke="#000000" stroke-width="1.0" stroke-linecap="butt" d="m19.852362 240.5858l-4.5380974 1.6517334l4.5380974 1.6517334z" fill-rule="evenodd"/><path fill="#000000" stroke="#000000" stroke-width="1.0" stroke-linecap="butt" d="m460.45078 243.88927l4.5381165 -1.6517334l-4.5381165 -1.6517334z" fill-rule="evenodd"/><path fill="#000000" fill-opacity="0.0" d="m219.66864 200.22179l40.661407 0l0 42.015747l-40.661407 0z" fill-rule="evenodd"/><path fill="#000000" d="m232.19739 227.14178l0 -13.359375l1.640625 0l0 13.359375l-1.640625 0z" fill-rule="nonzero"/><path fill="#000000" d="m240.15471 234.14178l0 -0.8125q-0.609375 0.953125 -1.796875 0.953125q-0.78125 0 -1.421875 -0.421875q-0.640625 -0.421875 -1.0 -1.1875q-0.359375 -0.765625 -0.359375 -1.75q0 -0.96875 0.3125 -1.75q0.328125 -0.78125 0.96875 -1.203125q0.65625 -0.421875 1.453125 -0.421875q0.578125 0 1.03125 0.25q0.453125 0.234375 0.75 0.640625l0 -3.203125l1.078125 0l0 8.90625l-1.015625 0zm-3.453125 -3.21875q0 1.234375 0.515625 1.859375q0.53125 0.609375 1.234375 0.609375q0.71875 0 1.21875 -0.578125q0.5 -0.59375 0.5 -1.796875q0 -1.328125 -0.515625 -1.9375q-0.5 -0.625 -1.25 -0.625q-0.71875 0 -1.21875 0.59375q-0.484375 0.59375 -0.484375 1.875zm6.182663 3.21875l0 -8.90625l1.09375 0l0 3.203125q0.765625 -0.890625 1.9375 -0.890625q0.71875 0 1.25 0.28125q0.53125 0.28125 0.75 0.78125q0.234375 0.5 0.234375 1.4375l0 4.09375l-1.09375 0l0 -4.09375q0 -0.8125 -0.359375 -1.1875q-0.359375 -0.375 -1.0 -0.375q-0.484375 0 -0.921875 0.25q-0.421875 0.25 -0.609375 0.6875q-0.1875 0.4375 -0.1875 1.1875l0 3.53125l-1.09375 0z" fill-rule="nonzero"/><path fill="#000000" fill-opacity="0.0" d="m102.85499 153.85564l40.661415 0l0 42.015747l-40.661415 0z" fill-rule="evenodd"/><path fill="#000000" d="m114.0052 180.77563l0 -13.359375l1.640625 0l0 13.359375l-1.640625 0z" fill-rule="nonzero"/><path fill="#000000" d="m122.1969 185.69751l1.125 0.140625q-0.265625 0.984375 -0.984375 1.53125q-0.71875 0.546875 -1.84375 0.546875q-1.421875 0 -2.25 -0.859375q-0.828125 -0.875 -0.828125 -2.453125q0 -1.625 0.828125 -2.515625q0.84375 -0.90625 2.1875 -0.90625q1.296875 0 2.109375 0.890625q0.828125 0.875 0.828125 2.46875q0 0.09375 -0.015625 0.28125l-4.8125 0q0.0625 1.078125 0.609375 1.640625q0.546875 0.5625 1.34375 0.5625q0.609375 0 1.03125 -0.3125q0.421875 -0.328125 0.671875 -1.015625zm-3.59375 -1.765625l3.609375 0q-0.078125 -0.8125 -0.421875 -1.21875q-0.515625 -0.640625 -1.34375 -0.640625q-0.75 0 -1.265625 0.515625q-0.515625 0.5 -0.578125 1.34375zm5.370163 3.84375l2.359375 -3.359375l-2.1875 -3.09375l1.375 0l0.984375 1.515625q0.28125 0.4375 0.453125 0.71875q0.265625 -0.390625 0.484375 -0.703125l1.09375 -1.53125l1.296875 0l-2.21875 3.046875l2.390625 3.40625l-1.34375 0l-1.3125 -2.0l-0.359375 -0.546875l-1.6875 2.546875l-1.328125 0zm9.328018 -0.984375l0.15625 0.96875q-0.453125 0.09375 -0.828125 0.09375q-0.59375 0 -0.921875 -0.1875q-0.328125 -0.1875 -0.46875 -0.484375q-0.125 -0.3125 -0.125 -1.296875l0 -3.703125l-0.796875 0l0 -0.859375l0.796875 0l0 -1.59375l1.09375 -0.65625l0 2.25l1.09375 0l0 0.859375l-1.09375 0l0 3.765625q0 0.46875 0.046875 0.609375q0.0625 0.125 0.1875 0.203125q0.140625 0.078125 0.390625 0.078125q0.171875 0 0.46875 -0.046875z" fill-rule="nonzero"/><path fill="#000000" fill-opacity="0.0" d="m68.347115 111.25459l0 0c-12.8055725 0 -25.086662 -5.1085587 -34.141567 -14.2018585c-9.054905 -9.0933 -14.141899 -21.42646 -14.141899 -34.28633l48.283466 0z" fill-rule="evenodd"/><path fill="#000000" fill-opacity="0.0" d="m68.347115 111.25459l0 0c-12.8055725 0 -25.086662 -5.1085587 -34.141567 -14.2018585c-9.054905 -9.0933 -14.141899 -21.42646 -14.141899 -34.28633" fill-rule="evenodd"/><path stroke="#38761d" stroke-width="16.0" stroke-linejoin="round" stroke-linecap="butt" d="m68.347115 111.25459l0 0c-12.8055725 0 -25.086662 -5.1085587 -34.141567 -14.2018585c-9.054905 -9.0933 -14.141899 -21.42646 -14.141899 -34.28633" fill-rule="evenodd"/><path fill="#000000" fill-opacity="0.0" d="m20.085958 63.292652l0 0c0 -26.527065 21.504435 -48.031498 48.031494 -48.031498l0 0c12.738747 0 24.955742 5.0604467 33.963394 14.068099c9.007652 9.007652 14.0681 21.224651 14.0681 33.963398l0 0c0 26.527065 -21.504433 48.031498 -48.031494 48.031498l0 0c-26.527061 0 -48.031494 -21.504433 -48.031494 -48.031498z" fill-rule="evenodd"/><path stroke="#000000" stroke-width="1.0" stroke-linejoin="round" stroke-linecap="butt" stroke-dasharray="8.0,3.0,1.0,3.0" d="m20.085958 63.292652l0 0c0 -26.527065 21.504435 -48.031498 48.031494 -48.031498l0 0c12.738747 0 24.955742 5.0604467 33.963394 14.068099c9.007652 9.007652 14.0681 21.224651 14.0681 33.963398l0 0c0 26.527065 -21.504433 48.031498 -48.031494 48.031498l0 0c-26.527061 0 -48.031494 -21.504433 -48.031494 -48.031498z" fill-rule="evenodd"/><path fill="#000000" fill-opacity="0.0" d="m34.154057 29.329254l67.93701 67.93701" fill-rule="evenodd"/><path stroke="#000000" stroke-width="1.0" stroke-linejoin="round" stroke-linecap="butt" d="m38.396698 33.571896l59.45173 59.451725" fill-rule="evenodd"/><path fill="#000000" stroke="#000000" stroke-width="1.0" stroke-linecap="butt" d="m39.56465 32.403946l-4.376873 -2.0409698l2.0409698 4.376869z" fill-rule="evenodd"/><path fill="#000000" stroke="#000000" stroke-width="1.0" stroke-linecap="butt" d="m96.68047 94.191574l4.376869 2.0409622l-2.0409698 -4.376869z" fill-rule="evenodd"/><path fill="#000000" fill-opacity="0.0" d="m58.383656 34.26842l40.66142 0l0 42.01575l-40.66142 0z" fill-rule="evenodd"/><path fill="#000000" d="m73.41539 61.18842l0 -13.359375l4.609375 0q1.546875 0 2.375 0.203125q1.140625 0.25 1.953125 0.953125q1.0625 0.890625 1.578125 2.28125q0.53125 1.390625 0.53125 3.171875q0 1.515625 -0.359375 2.703125q-0.359375 1.171875 -0.921875 1.9375q-0.546875 0.765625 -1.203125 1.21875q-0.65625 0.4375 -1.59375 0.671875q-0.9375 0.21875 -2.140625 0.21875l-4.828125 0zm1.765625 -1.578125l2.859375 0q1.3125 0 2.0625 -0.234375q0.75 -0.25 1.203125 -0.703125q0.625 -0.625 0.96875 -1.6875q0.359375 -1.0625 0.359375 -2.578125q0 -2.09375 -0.6875 -3.21875q-0.6875 -1.125 -1.671875 -1.5q-0.703125 -0.28125 -2.28125 -0.28125l-2.8125 0l0 10.203125z" fill-rule="nonzero"/><path fill="#000000" fill-opacity="0.0" d="m68.347115 169.06299l0 -40.7874" fill-rule="evenodd"/><path stroke="#000000" stroke-width="1.0" stroke-linejoin="round" stroke-linecap="butt" stroke-dasharray="8.0,3.0" d="m68.347115 169.06299l0 -40.7874" fill-rule="evenodd"/><path fill="#000000" fill-opacity="0.0" d="m69.92716 153.85564l108.18897 0" fill-rule="evenodd"/><path stroke="#000000" stroke-width="1.0" stroke-linejoin="round" stroke-linecap="butt" d="m75.92716 153.85564l96.18897 0" fill-rule="evenodd"/><path fill="#000000" stroke="#000000" stroke-width="1.0" stroke-linecap="butt" d="m75.92716 152.2039l-4.5380936 1.6517334l4.5380936 1.6517334z" fill-rule="evenodd"/><path fill="#000000" stroke="#000000" stroke-width="1.0" stroke-linecap="butt" d="m172.11613 155.50737l4.538101 -1.6517334l-4.538101 -1.6517334z" fill-rule="evenodd"/></g></svg>