<svg version="1.1" viewBox="0.0 0.0 960.0 720.0" fill="none" stroke="none" stroke-linecap="square" stroke-miterlimit="10" xmlns:xlink="http://www.w3.org/1999/xlink" xmlns="http://www.w3.org/2000/svg"><clipPath id="p.0"><path d="m0 0l960.0 0l0 720.0l-960.0 0l0 -720.0z" clip-rule="nonzero"/></clipPath><g clip-path="url(#p.0)"><path fill="#000000" fill-opacity="0.0" d="m0 0l960.0 0l0 720.0l-960.0 0z" fill-rule="evenodd"/><path fill="#000000" fill-opacity="0.0" d="m99.61811 267.9391l0 -207.68504" fill-rule="evenodd"/><path stroke="#38761d" stroke-width="16.0" stroke-linejoin="round" stroke-linecap="butt" d="m99.61811 267.9391l0 -207.68504" fill-rule="evenodd"/><path fill="#000000" fill-opacity="0.0" d="m546.1562 14.381889l-400.315 0" fill-rule="evenodd"/><path stroke="#38761d" stroke-width="16.0" stroke-linejoin="round" stroke-linecap="butt" d="m546.1562 14.381889l-400.315 0" fill-rule="evenodd"/><path fill="#000000" fill-opacity="0.0" d="m99.61811 60.681103l0 0c0 -12.279316 4.8779373 -24.055702 13.560722 -32.738487c8.682793 -8.682787 20.459183 -13.560726 32.738495 -13.560726l0 46.299213z" fill-rule="evenodd"/><path fill="#000000" fill-opacity="0.0" d="m99.61811 60.681103l0 0c0 -12.279316 4.8779373 -24.055702 13.560722 -32.738487c8.682793 -8.682787 20.459183 -13.560726 32.738495 -13.560726" fill-rule="evenodd"/><path stroke="#38761d" stroke-width="16.0" stroke-linejoin="round" stroke-linecap="butt" d="m99.61811 60.681103l0 0c0 -12.279316 4.8779373 -24.055702 13.560722 -32.738487c8.682793 -8.682787 20.459183 -13.560726 32.738495 -13.560726" fill-rule="evenodd"/><path fill="#000000" fill-opacity="0.0" d="m99.61811 62.413387l0 0c0 -26.527065 21.504433 -48.031498 48.0315 -48.031498l0 0c12.738739 0 24.955734 5.0604477 33.963394 14.0681c9.007645 9.007652 14.0681 21.224651 14.0681 33.963398l0 0c0 26.527058 -21.50444 48.031498 -48.031494 48.031498l0 0c-26.52707 0 -48.0315 -21.50444 -48.0315 -48.031498z" fill-rule="evenodd"/><path stroke="#000000" stroke-width="1.0" stroke-linejoin="round" stroke-linecap="butt" stroke-dasharray="8.0,3.0,1.0,3.0" d="m99.61811 62.413387l0 0c0 -26.527065 21.504433 -48.031498 48.0315 -48.031498l0 0c12.738739 0 24.955734 5.0604477 33.963394 14.0681c9.007645 9.007652 14.0681 21.224651 14.0681 33.963398l0 0c0 26.527058 -21.50444 48.031498 -48.031494 48.031498l0 0c-26.52707 0 -48.0315 -21.50444 -48.0315 -48.031498z" fill-rule="evenodd"/><path fill="#000000" fill-opacity="0.0" d="m85.38038 110.444885l-43.055122 0" fill-rule="evenodd"/><path stroke="#000000" stroke-width="1.0" stroke-linejoin="round" stroke-linecap="butt" stroke-dasharray="8.0,3.0" d="m85.38038 110.444885l-43.055122 0" fill-rule="evenodd"/><path fill="#000000" fill-opacity="0.0" d="m85.38038 267.93832l-41.322838 0" fill-rule="evenodd"/><path stroke="#000000" stroke-width="1.0" stroke-linejoin="round" stroke-linecap="butt" stroke-dasharray="8.0,3.0" d="m85.38038 267.93832l-41.322838 0" fill-rule="evenodd"/><path fill="#000000" fill-opacity="0.0" d="m92.90682 273.99344l0 46.11023" fill-rule="evenodd"/><path stroke="#000000" stroke-width="1.0" stroke-linejoin="round" stroke-linecap="butt" stroke-dasharray="8.0,3.0" d="m92.90682 273.99344l0 46.11023" fill-rule="evenodd"/><path fill="#000000" fill-opacity="0.0" d="m546.1562 30.18504l0 289.92126" fill-rule="evenodd"/><path stroke="#000000" stroke-width="1.0" stroke-linejoin="round" stroke-linecap="butt" stroke-dasharray="8.0,3.0" d="m546.1562 30.18504l0 289.92126" fill-rule="evenodd"/><path fill="#000000" fill-opacity="0.0" d="m93.384514 305.39764l452.5984 0" fill-rule="evenodd"/><path stroke="#000000" stroke-width="1.0" stroke-linejoin="round" stroke-linecap="butt" d="m99.384514 305.39764l440.5984 0" fill-rule="evenodd"/><path fill="#000000" stroke="#000000" stroke-width="1.0" stroke-linecap="butt" d="m99.384514 303.7459l-4.5380936 1.6517334l4.5380936 1.6517334z" fill-rule="evenodd"/><path fill="#000000" stroke="#000000" stroke-width="1.0" stroke-linecap="butt" d="m539.9829 307.04938l4.538147 -1.6517334l-4.538147 -1.6517334z" fill-rule="evenodd"/><path fill="#000000" fill-opacity="0.0" d="m299.20078 263.3819l40.661438 0l0 42.015747l-40.661438 0z" fill-rule="evenodd"/><path fill="#000000" d="m311.72955 290.30188l0 -13.359375l1.640625 0l0 13.359375l-1.640625 0z" fill-rule="nonzero"/><path fill="#000000" d="m319.68686 297.30188l0 -0.8125q-0.609375 0.953125 -1.796875 0.953125q-0.78125 0 -1.421875 -0.421875q-0.640625 -0.421875 -1.0 -1.1875q-0.359375 -0.765625 -0.359375 -1.75q0 -0.96875 0.3125 -1.75q0.328125 -0.78125 0.96875 -1.203125q0.65625 -0.421875 1.453125 -0.421875q0.578125 0 1.03125 0.25q0.453125 0.234375 0.75 0.640625l0 -3.203125l1.078125 0l0 8.90625l-1.015625 0zm-3.453125 -3.21875q0 1.234375 0.515625 1.859375q0.53125 0.609375 1.234375 0.609375q0.71875 0 1.21875 -0.578125q0.5 -0.59375 0.5 -1.796875q0 -1.328125 -0.515625 -1.9375q-0.5 -0.625 -1.25 -0.625q-0.71875 0 -1.21875 0.59375q-0.484375 0.59375 -0.484375 1.875zm6.182678 3.21875l0 -8.90625l1.09375 0l0 3.203125q0.765625 -0.890625 1.9375 -0.890625q0.71875 0 1.25 0.28125q0.53125 0.28125 0.75 0.78125q0.234375 0.5 0.234375 1.4375l0 4.09375l-1.09375 0l0 -4.09375q0 -0.8125 -0.359375 -1.1875q-0.359375 -0.375 -1.0 -0.375q-0.484375 0 -0.921875 0.25q-0.421875 0.25 -0.609375 0.6875q-0.1875 0.4375 -0.1875 1.1875l0 3.53125l-1.09375 0z" fill-rule="nonzero"/><path fill="#000000" fill-opacity="0.0" d="m57.654854 110.44357l0 157.73227" fill-rule="evenodd"/><path stroke="#000000" stroke-width="1.0" stroke-linejoin="round" stroke-linecap="butt" d="m57.654854 116.44357l0 145.73227" fill-rule="evenodd"/><path fill="#000000" stroke="#000000" stroke-width="1.0" stroke-linecap="butt" d="m59.306587 116.44357l-1.6517334 -4.538101l-1.6517296 4.538101z" fill-rule="evenodd"/><path fill="#000000" stroke="#000000" stroke-width="1.0" stroke-linecap="butt" d="m56.003124 262.17584l1.6517296 4.5381165l1.6517334 -4.5381165z" fill-rule="evenodd"/><path fill="#000000" fill-opacity="0.0" d="m16.993439 168.18373l40.661415 0l0 42.015747l-40.661415 0z" fill-rule="evenodd"/><path fill="#000000" d="m28.143658 195.10373l0 -13.359375l1.640625 0l0 13.359375l-1.640625 0z" fill-rule="nonzero"/><path fill="#000000" d="m36.335354 200.0256l1.125 0.140625q-0.265625 0.984375 -0.984375 1.53125q-0.71875 0.546875 -1.84375 0.546875q-1.421875 0 -2.25 -0.859375q-0.828125 -0.875 -0.828125 -2.453125q0 -1.625 0.828125 -2.515625q0.84375 -0.90625 2.1875 -0.90625q1.296875 0 2.109375 0.890625q0.828125 0.875 0.828125 2.46875q0 0.09375 -0.015625 0.28125l-4.8125 0q0.0625 1.078125 0.609375 1.640625q0.546875 0.5625 1.34375 0.5625q0.609375 0 1.03125 -0.3125q0.421875 -0.328125 0.671875 -1.015625zm-3.59375 -1.765625l3.609375 0q-0.078125 -0.8125 -0.421875 -1.21875q-0.515625 -0.640625 -1.34375 -0.640625q-0.75 0 -1.265625 0.515625q-0.515625 0.5 -0.578125 1.34375zm5.370163 3.84375l2.359375 -3.359375l-2.1875 -3.09375l1.375 0l0.984375 1.515625q0.28125 0.4375 0.453125 0.71875q0.265625 -0.390625 0.484375 -0.703125l1.09375 -1.53125l1.296875 0l-2.21875 3.046875l2.390625 3.40625l-1.34375 0l-1.3125 -2.0l-0.359375 -0.546875l-1.6875 2.546875l-1.328125 0zm9.328018 -0.984375l0.15625 0.96875q-0.453125 0.09375 -0.828125 0.09375q-0.59375 0 -0.921875 -0.1875q-0.328125 -0.1875 -0.46875 -0.484375q-0.125 -0.3125 -0.125 -1.296875l0 -3.703125l-0.796875 0l0 -0.859375l0.796875 0l0 -1.59375l1.09375 -0.65625l0 2.25l1.09375 0l0 0.859375l-1.09375 0l0 3.765625q0 0.46875 0.046875 0.609375q0.0625 0.125 0.1875 0.203125q0.140625 0.078125 0.390625 0.078125q0.171875 0 0.46875 -0.046875z" fill-rule="nonzero"/><path fill="#000000" fill-opacity="0.0" d="m113.68621 28.44999l67.937004 67.937004" fill-rule="evenodd"/><path stroke="#000000" stroke-width="1.0" stroke-linejoin="round" stroke-linecap="butt" d="m117.92885 32.69263l59.451736 59.451725" fill-rule="evenodd"/><path fill="#000000" stroke="#000000" stroke-width="1.0" stroke-linecap="butt" d="m119.0968 31.52468l-4.376869 -2.040968l2.0409622 4.376869z" fill-rule="evenodd"/><path fill="#000000" stroke="#000000" stroke-width="1.0" stroke-linecap="butt" d="m176.21263 93.31231l4.3768616 2.0409622l-2.0409698 -4.376869z" fill-rule="evenodd"/><path fill="#000000" fill-opacity="0.0" d="m137.9158 33.389156l40.661423 0l0 42.01575l-40.661423 0z" fill-rule="evenodd"/><path fill="#000000" d="m152.94754 60.309155l0 -13.359375l4.609375 0q1.546875 0 2.375 0.203125q1.140625 0.25 1.953125 0.953125q1.0625 0.890625 1.578125 2.28125q0.53125 1.390625 0.53125 3.171875q0 1.515625 -0.359375 2.703125q-0.359375 1.171875 -0.921875 1.9375q-0.546875 0.765625 -1.203125 1.21875q-0.65625 0.4375 -1.59375 0.671875q-0.9375 0.21875 -2.140625 0.21875l-4.828125 0zm1.765625 -1.578125l2.859375 0q1.3125 0 2.0625 -0.234375q0.75 -0.25 1.203125 -0.703125q0.625 -0.625 0.96875 -1.6875q0.359375 -1.0625 0.359375 -2.578125q0 -2.09375 -0.6875 -3.21875q-0.6875 -1.125 -1.671875 -1.5q-0.703125 -0.28125 -2.28125 -0.28125l-2.8125 0l0 10.203125z" fill-rule="nonzero"/><path fill="#000000" fill-opacity="0.0" d="m1068.8287 255.88805l111.71655 0" fill-rule="evenodd"/><path stroke="#38761d" stroke-width="16.0" stroke-linejoin="round" stroke-linecap="butt" d="m1068.8287 255.88805l111.71655 0" fill-rule="evenodd"/><path fill="#000000" fill-opacity="0.0" d="m1469.1437 159.82808l-400.31494 0" fill-rule="evenodd"/><path stroke="#38761d" stroke-width="16.0" stroke-linejoin="round" stroke-linecap="butt" d="m1469.1437 159.82808l-400.31494 0" fill-rule="evenodd"/><path fill="#000000" fill-opacity="0.0" d="m1022.60693 207.71396l0 0c0 -12.701157 4.8779297 -24.88211 13.560791 -33.863174c8.682739 -8.981079 20.459106 -14.026596 32.738403 -14.026596l0 47.88977z" fill-rule="evenodd"/><path fill="#000000" fill-opacity="0.0" d="m1022.60693 207.71396l0 0c0 -12.701157 4.8779297 -24.88211 13.560791 -33.863174c8.682739 -8.981079 20.459106 -14.026596 32.738403 -14.026596" fill-rule="evenodd"/><path stroke="#38761d" stroke-width="16.0" stroke-linejoin="round" stroke-linecap="butt" d="m1022.60693 207.71396l0 0c0 -12.701157 4.8779297 -24.88211 13.560791 -33.863174c8.682739 -8.981079 20.459106 -14.026596 32.738403 -14.026596" fill-rule="evenodd"/><path fill="#000000" fill-opacity="0.0" d="m1180.5466 313.6299l0 -40.787384" fill-rule="evenodd"/><path stroke="#000000" stroke-width="1.0" stroke-linejoin="round" stroke-linecap="butt" stroke-dasharray="8.0,3.0" d="m1180.5466 313.6299l0 -40.787384" fill-rule="evenodd"/><path fill="#000000" fill-opacity="0.0" d="m1015.8957 233.51968l0 168.0" fill-rule="evenodd"/><path stroke="#000000" stroke-width="1.0" stroke-linejoin="round" stroke-linecap="butt" stroke-dasharray="8.0,3.0" d="m1015.8957 233.51968l0 168.0" fill-rule="evenodd"/><path fill="#000000" fill-opacity="0.0" d="m1469.1437 175.63124l0 226.64568" fill-rule="evenodd"/><path stroke="#000000" stroke-width="1.0" stroke-linejoin="round" stroke-linecap="butt" stroke-dasharray="8.0,3.0" d="m1469.1437 175.63124l0 226.64568" fill-rule="evenodd"/><path fill="#000000" fill-opacity="0.0" d="m1016.3721 386.80447l452.5984 0" fill-rule="evenodd"/><path stroke="#000000" stroke-width="1.0" stroke-linejoin="round" stroke-linecap="butt" d="m1022.3721 386.80447l440.5984 0" fill-rule="evenodd"/><path fill="#000000" stroke="#000000" stroke-width="1.0" stroke-linecap="butt" d="m1022.3721 385.15274l-4.538147 1.6517334l4.538147 1.6517334z" fill-rule="evenodd"/><path fill="#000000" stroke="#000000" stroke-width="1.0" stroke-linecap="butt" d="m1462.9705 388.4562l4.538086 -1.6517334l-4.538086 -1.6517334z" fill-rule="evenodd"/><path fill="#000000" fill-opacity="0.0" d="m1222.1884 344.78873l40.661377 0l0 42.015747l-40.661377 0z" fill-rule="evenodd"/><path fill="#000000" d="m1234.717 371.7087l0 -13.359375l1.640625 0l0 13.359375l-1.640625 0z" fill-rule="nonzero"/><path fill="#000000" d="m1242.6744 378.7087l0 -0.8125q-0.609375 0.953125 -1.796875 0.953125q-0.78125 0 -1.421875 -0.421875q-0.640625 -0.421875 -1.0 -1.1875q-0.359375 -0.765625 -0.359375 -1.75q0 -0.96875 0.3125 -1.75q0.328125 -0.78125 0.96875 -1.203125q0.65625 -0.421875 1.453125 -0.421875q0.578125 0 1.03125 0.25q0.453125 0.234375 0.75 0.640625l0 -3.203125l1.078125 0l0 8.90625l-1.015625 0zm-3.453125 -3.21875q0 1.234375 0.515625 1.859375q0.53125 0.609375 1.234375 0.609375q0.71875 0 1.21875 -0.578125q0.5 -0.59375 0.5 -1.796875q0 -1.328125 -0.515625 -1.9375q-0.5 -0.625 -1.25 -0.625q-0.71875 0 -1.21875 0.59375q-0.484375 0.59375 -0.484375 1.875zm6.182617 3.21875l0 -8.90625l1.09375 0l0 3.203125q0.765625 -0.890625 1.9375 -0.890625q0.71875 0 1.25 0.28125q0.53125 0.28125 0.75 0.78125q0.234375 0.5 0.234375 1.4375l0 4.09375l-1.09375 0l0 -4.09375q0 -0.8125 -0.359375 -1.1875q-0.359375 -0.375 -1.0 -0.375q-0.484375 0 -0.921875 0.25q-0.421875 0.25 -0.609375 0.6875q-0.1875 0.4375 -0.1875 1.1875l0 3.53125l-1.09375 0z" fill-rule="nonzero"/><path fill="#000000" fill-opacity="0.0" d="m1105.3746 298.42258l40.6615 0l0 42.015747l-40.6615 0z" fill-rule="evenodd"/><path fill="#000000" d="m1116.5249 325.34256l0 -13.359375l1.640625 0l0 13.359375l-1.640625 0z" fill-rule="nonzero"/><path fill="#000000" d="m1124.7166 330.26443l1.125 0.140625q-0.265625 0.984375 -0.984375 1.53125q-0.71875 0.546875 -1.84375 0.546875q-1.421875 0 -2.25 -0.859375q-0.828125 -0.875 -0.828125 -2.453125q0 -1.625 0.828125 -2.515625q0.84375 -0.90625 2.1875 -0.90625q1.296875 0 2.109375 0.890625q0.828125 0.875 0.828125 2.46875q0 0.09375 -0.015625 0.28125l-4.8125 0q0.0625 1.078125 0.609375 1.640625q0.546875 0.5625 1.34375 0.5625q0.609375 0 1.03125 -0.3125q0.421875 -0.328125 0.671875 -1.015625zm-3.59375 -1.765625l3.609375 0q-0.078125 -0.8125 -0.421875 -1.21875q-0.515625 -0.640625 -1.34375 -0.640625q-0.75 0 -1.265625 0.515625q-0.515625 0.5 -0.578125 1.34375zm5.3702393 3.84375l2.359375 -3.359375l-2.1875 -3.09375l1.375 0l0.984375 1.515625q0.28125 0.4375 0.453125 0.71875q0.265625 -0.390625 0.484375 -0.703125l1.09375 -1.53125l1.296875 0l-2.21875 3.046875l2.390625 3.40625l-1.34375 0l-1.3125 -2.0l-0.359375 -0.546875l-1.6875 2.546875l-1.328125 0zm9.328003 -0.984375l0.15625 0.96875q-0.453125 0.09375 -0.828125 0.09375q-0.59375 0 -0.921875 -0.1875q-0.328125 -0.1875 -0.46875 -0.484375q-0.125 -0.3125 -0.125 -1.296875l0 -3.703125l-0.796875 0l0 -0.859375l0.796875 0l0 -1.59375l1.09375 -0.65625l0 2.25l1.09375 0l0 0.859375l-1.09375 0l0 3.765625q0 0.46875 0.046875 0.609375q0.0625 0.125 0.1875 0.203125q0.140625 0.078125 0.390625 0.078125q0.171875 0 0.46875 -0.046875z" fill-rule="nonzero"/><path fill="#000000" fill-opacity="0.0" d="m1070.8668 255.82152l0 0c-12.805542 0 -25.08667 -5.108551 -34.1416 -14.2018585c-9.054932 -9.093292 -14.141907 -21.426453 -14.141907 -34.28633l48.28351 0z" fill-rule="evenodd"/><path fill="#000000" fill-opacity="0.0" d="m1070.8668 255.82152l0 0c-12.805542 0 -25.08667 -5.108551 -34.1416 -14.2018585c-9.054932 -9.093292 -14.141907 -21.426453 -14.141907 -34.28633" fill-rule="evenodd"/><path stroke="#38761d" stroke-width="16.0" stroke-linejoin="round" stroke-linecap="butt" d="m1070.8668 255.82152l0 0c-12.805542 0 -25.08667 -5.108551 -34.1416 -14.2018585c-9.054932 -9.093292 -14.141907 -21.426453 -14.141907 -34.28633" fill-rule="evenodd"/><path fill="#000000" fill-opacity="0.0" d="m1022.60565 207.85957l0 0c0 -26.527054 21.504456 -48.031494 48.031433 -48.031494l0 0c12.73877 0 24.95581 5.0604553 33.9635 14.0681c9.007568 9.00766 14.067993 21.224655 14.067993 33.963394l0 0c0 26.52707 -21.504395 48.03151 -48.031494 48.03151l0 0c-26.526978 0 -48.031433 -21.50444 -48.031433 -48.03151z" fill-rule="evenodd"/><path stroke="#000000" stroke-width="1.0" stroke-linejoin="round" stroke-linecap="butt" stroke-dasharray="8.0,3.0,1.0,3.0" d="m1022.60565 207.85957l0 0c0 -26.527054 21.504456 -48.031494 48.031433 -48.031494l0 0c12.73877 0 24.95581 5.0604553 33.9635 14.0681c9.007568 9.00766 14.067993 21.224655 14.067993 33.963394l0 0c0 26.52707 -21.504395 48.03151 -48.031494 48.03151l0 0c-26.526978 0 -48.031433 -21.50444 -48.031433 -48.03151z" fill-rule="evenodd"/><path fill="#000000" fill-opacity="0.0" d="m1036.6737 173.89618l67.93701 67.93701" fill-rule="evenodd"/><path stroke="#000000" stroke-width="1.0" stroke-linejoin="round" stroke-linecap="butt" d="m1040.9164 178.13882l59.451782 59.45172" fill-rule="evenodd"/><path fill="#000000" stroke="#000000" stroke-width="1.0" stroke-linecap="butt" d="m1042.0844 176.97087l-4.376953 -2.0409698l2.0410156 4.376877z" fill-rule="evenodd"/><path fill="#000000" stroke="#000000" stroke-width="1.0" stroke-linecap="butt" d="m1099.2002 238.7585l4.376831 2.0409698l-2.0410156 -4.376877z" fill-rule="evenodd"/><path fill="#000000" fill-opacity="0.0" d="m1060.9033 178.83536l40.6615 0l0 42.015747l-40.6615 0z" fill-rule="evenodd"/><path fill="#000000" d="m1075.935 205.75536l0 -13.359375l4.609375 0q1.546875 0 2.375 0.203125q1.140625 0.25 1.953125 0.953125q1.0625 0.890625 1.578125 2.28125q0.53125 1.390625 0.53125 3.171875q0 1.515625 -0.359375 2.703125q-0.359375 1.171875 -0.921875 1.9375q-0.546875 0.765625 -1.203125 1.21875q-0.65625 0.4375 -1.59375 0.671875q-0.9375 0.21875 -2.140625 0.21875l-4.828125 0zm1.765625 -1.578125l2.859375 0q1.3125 0 2.0625 -0.234375q0.75 -0.25 1.203125 -0.703125q0.625 -0.625 0.96875 -1.6875q0.359375 -1.0625 0.359375 -2.578125q0 -2.09375 -0.6875 -3.21875q-0.6875 -1.125 -1.671875 -1.5q-0.703125 -0.28125 -2.28125 -0.28125l-2.8125 0l0 10.203125z" fill-rule="nonzero"/><path fill="#000000" fill-opacity="0.0" d="m1070.8668 313.6299l0 -40.787384" fill-rule="evenodd"/><path stroke="#000000" stroke-width="1.0" stroke-linejoin="round" stroke-linecap="butt" stroke-dasharray="8.0,3.0" d="m1070.8668 313.6299l0 -40.787384" fill-rule="evenodd"/><path fill="#000000" fill-opacity="0.0" d="m1072.4469 298.42258l108.188965 0" fill-rule="evenodd"/><path stroke="#000000" stroke-width="1.0" stroke-linejoin="round" stroke-linecap="butt" d="m1078.4469 298.42258l96.188965 0" fill-rule="evenodd"/><path fill="#000000" stroke="#000000" stroke-width="1.0" stroke-linecap="butt" d="m1078.4469 296.77084l-4.538086 1.6517334l4.538086 1.6517334z" fill-rule="evenodd"/><path fill="#000000" stroke="#000000" stroke-width="1.0" stroke-linecap="butt" d="m1174.6359 300.0743l4.538086 -1.6517334l-4.538086 -1.6517334z" fill-rule="evenodd"/></g></svg>